<svg xmlns="http://www.w3.org/2000/svg" width="500" height="500" viewBox="0 0 500 500">
  <defs>
    <style>
      .cls-1 {
        fill: #fdcb6e;
        fill-rule: evenodd;
      }
    </style>
  </defs>
  <path class="cls-1" d="M116.512,138.985A332.255,332.255,0,0,0,231.088,86.471a332.17,332.17,0,0,0,81.989-84.18A331.339,331.339,0,0,0,366.6,121.121,331.2,331.2,0,0,0,454.18,205.2,325.88,325.88,0,0,0,257.616,341.891a331.348,331.348,0,0,0-53.528-118.829A331.208,331.208,0,0,0,116.512,138.985Z"/>
  <path id="Rectangle_6_copy" data-name="Rectangle 6 copy" class="cls-1" d="M45.587,485.932a182.792,182.792,0,0,0,18.841-66.717,182.715,182.715,0,0,0-6.04-64.353,182.081,182.081,0,0,0,135.3,13.214,179.243,179.243,0,0,0-12.8,131.069A182.1,182.1,0,0,0,45.587,485.932Z"/>
</svg>
